<svg xmlns="http://www.w3.org/2000/svg" width="256" height="256"><path fill-opacity=".196" d="M0 128.004v128.004l128.25-.254 128.25-.254.254-127.75L257.008 0H0v128.004m.485.496c0 70.4.119 99.053.265 63.672.146-35.38.146-92.98 0-128C.604 29.153.485 58.1.485 128.5" fill="#1976D2" fill-rule="evenodd"/><path fill-opacity=".151" d="M74.215 128.169c.197 7.034.67 10.296 1.535 10.583.864.287 1.25-.848 1.25-3.669 0-3.835.175-4.083 2.889-4.083 4.135 0 7.444-3.019 7.444-6.791 0-4.805-1.806-6.209-7.99-6.209H73.93l.285 10.169M115 128.5c0 8.667.262 10.5 1.5 10.5 1.048 0 1.5-1.056 1.5-3.5 0-1.925.367-3.5.815-3.5.448 0 1.566 1.575 2.484 3.5.918 1.925 2.359 3.5 3.202 3.5 1.253 0 1.092-.87-.886-4.774l-2.42-4.774 2.021-2.774c2.938-4.034 1.131-4.75-2.299-.912L118 129.032v-5.516c0-4.236-.348-5.516-1.5-5.516-1.238 0-1.5 1.833-1.5 10.5m19 0c0 8.667.262 10.5 1.5 10.5s1.5-1.833 1.5-10.5-.262-10.5-1.5-10.5-1.5 1.833-1.5 10.5M77 124c0 2.752.284 3 3.441 3 3.874 0 4.981-1.095 4.056-4.009-.469-1.479-1.515-1.991-4.064-1.991-3.148 0-3.433.249-3.433 3m12.667-.333c-.367.366-.667 3.291-.667 6.5 0 4.5.457 6.29 2 7.833 2.17 2.17 3.565 2.514 4.442 1.094.308-.498 1.48-.666 2.603-.372 1.944.508 2.029.163 1.749-7.101-.338-8.771-2.147-10.318-2.591-2.216-.295 5.372-2.071 8.413-4.159 7.122-.574-.355-1.044-3.543-1.044-7.086 0-5.942-.623-7.484-2.333-5.774m12.755.25c-.232.229-.422 3.716-.422 7.75 0 5.744.315 7.333 1.452 7.333 1.083 0 1.528-1.589 1.75-6.25.262-5.484.543-6.25 2.298-6.25s2.036.766 2.298 6.25c.222 4.661.667 6.25 1.75 6.25 2.138 0 2.041-12.268-.114-14.423-1.395-1.395-7.794-1.864-9.012-.66m39.311.833c-3.726 4.135-3.364 11.136.716 13.808 2.858 1.873 6.018.698 7.075-2.632 1-3.152-.431-3.701-2.498-.96-1.568 2.079-2.071 2.242-3.432 1.112-1.61-1.336-2.104-5.585-.987-8.496.769-2.004 3.274-2.055 4.031-.082.716 1.864 3.362 1.986 3.362.155 0-1.749-3.23-4.655-5.174-4.655-.834 0-2.226.787-3.093 1.75m11.34.885c-2.878 3.658-2.712 8.817.382 11.91 2.955 2.956 3.637 3.011 6.684.543 4.633-3.751 2.213-15.088-3.221-15.088-.975 0-2.706 1.186-3.845 2.635m11.251-1.03c-.933 2.417.209 13.747 1.426 14.149.888.293 1.25-1.034 1.25-4.589 0-6.259.714-8.165 3.059-8.165 1.562 0 1.891.947 2.143 6.171.185 3.82.774 6.327 1.548 6.583.909.3 1.25-1.264 1.25-5.736 0-8.465-1.049-10.129-6.171-9.789-2.243.149-4.271.768-4.505 1.376m-9.657 2.062c-1.274 1.274-.666 8.089.833 9.333 2.192 1.819 4.5-.449 4.5-4.422 0-4.283-3.104-7.141-5.333-4.911" fill="#1976D2" fill-rule="evenodd"/><path fill-opacity=".058" d="M75 128.5c0 6.333.397 10.5 1 10.5.55 0 1-2.025 1-4.5V130h3.965c4.302 0 6.035-1.803 6.035-6.279 0-3.534-2.994-5.721-7.829-5.721H75v10.5m41.321 0c-.032 6.05.221 9.461.561 7.579.835-4.623 2.388-4.833 4.408-.598.923 1.936 2.135 3.519 2.694 3.519 1.392 0 1.325-.311-1.175-5.456l-2.191-4.509 2.366-2.517c1.818-1.936 2.004-2.518.805-2.518-.857 0-2.296 1.125-3.197 2.5-2.511 3.832-3.459 3.032-3.853-3.25-.198-3.162-.387-.8-.418 5.25m18.679 0c0 6.824.357 10.397 1 10 .552-.341 1-4.824 1-10s-.448-9.659-1-10c-.643-.397-1 3.176-1 10m-58-3.937c0 3.397.147 3.549 3.149 3.25 6.271-.624 6.618-6.813.382-6.813-3.381 0-3.531.152-3.531 3.563m29.458-.495c-.363.588-1.29.827-2.059.532-1.131-.435-1.371.939-1.252 7.181l.147 7.719.613-5.724c1.163-10.862 6.173-11.254 7.19-.563l.598 6.287.153-7.05c.15-6.95-.773-9.45-3.489-9.45-.683 0-1.538.481-1.901 1.068m62.069-.112c-.325.526-1.252.703-2.059.393-1.212-.465-1.468.774-1.468 7.103 0 4.856.367 7.439 1 7.048.55-.34 1-3.051 1-6.024 0-4.233.401-5.62 1.847-6.394 2.89-1.547 4.153.636 4.153 7.177 0 3.651.377 5.626 1 5.241 1.6-.989 1.189-10.785-.557-13.277-1.624-2.319-3.903-2.906-4.916-1.267M90 129.918c0 3.255.273 6.63.607 7.5.692 1.804 4.929 2.142 5.959.475.477-.771.944-.696 1.544.25.516.815.813-1.839.744-6.643l-.116-8-.745 5.826c-.808 6.321-1.986 8.274-4.426 7.338-1.183-.454-1.567-2.079-1.567-6.633 0-3.354-.444-6.031-1-6.031-.554 0-1 2.639-1 5.918m51.066-4.042c-1.358 2.539-1.376 8.677-.031 11.19 1.396 2.608 5.478 2.467 7.385-.256 1.983-2.831 1.156-3.641-1.377-1.349-2.44 2.209-4.587 1.491-5.416-1.811-1.424-5.673 2.883-9.878 6.042-5.9 1.276 1.606 1.367 1.545 1.11-.75-.376-3.368-6.068-4.198-7.713-1.124m12.137-.62c-3.505 4.222-1.363 13.744 3.091 13.744 1.318 0 3.141-.823 4.051-1.829 1.857-2.052 2.201-8.283.62-11.237-1.188-2.219-6.126-2.65-7.762-.678m.597 3.284c-1.676 3.679.013 7.96 3.141 7.96 3.006 0 4.587-3.981 3.117-7.849-1.318-3.466-4.702-3.526-6.258-.111" fill="#1976D2" fill-rule="evenodd"/><path fill-opacity=".152" d="M75 128.5c0 5.667.404 9.5 1 9.5.55 0 1-1.773 1-3.94 0-3.824.109-3.948 3.719-4.25 4.808-.401 7.343-4.184 5.505-8.217-1.043-2.29-1.769-2.593-6.203-2.593H75v9.5m41.321 0c-.032 5.5.221 8.461.561 6.579.835-4.623 2.388-4.833 4.408-.598.923 1.936 2.103 3.519 2.623 3.519.521 0-.165-1.988-1.522-4.417-1.553-2.778-2.085-4.654-1.435-5.056.568-.351 1.515-1.626 2.103-2.833.753-1.545.167-1.232-1.981 1.056-1.677 1.787-3.259 3.25-3.514 3.25-.255 0-.627-2.588-.825-5.75-.198-3.162-.387-1.25-.418 4.25m19.044 0c.003 5.5.171 7.622.373 4.716.203-2.905.201-7.405-.004-10-.206-2.594-.371-.216-.369 5.284M77 124.06v4.061l3.75-.311c3.305-.273 3.789-.653 4.08-3.201.375-3.282-1.052-4.571-5.08-4.594-2.551-.014-2.75.279-2.75 4.045m13.175 6.068c-.202 7.634 1.405 10.24 4.947 8.028 1.078-.673 2.391-.957 2.919-.631.585.362.887-2.259.774-6.716-.168-6.629-.22-6.8-.56-1.839-.41 5.989-1.518 8.03-4.358 8.03-2.021 0-2.667-1.811-3.209-9-.255-3.387-.382-2.861-.513 2.128m12.987.872l.132 7.5.612-5.709c.702-6.556 2.239-8.817 4.872-7.167 1.178.739 1.906 2.943 2.304 6.978l.582 5.898.168-5.668c.092-3.118-.105-6.38-.439-7.25-.692-1.804-4.929-2.142-5.959-.475-.477.771-.944.696-1.544-.25-.518-.818-.807 1.623-.728 6.143m38.395-4.777c-2.915 4.161-.941 12.777 2.928 12.777 1.696 0 4.526-2.727 4.485-4.321-.017-.649-.489-.392-1.05.571-1.177 2.021-3.979 2.291-5.72.55-1.712-1.712-1.484-7.373.371-9.229 2.107-2.106 3.027-1.983 4.872.652 1.088 1.552 1.557 1.763 1.557.7 0-4.045-5.001-5.187-7.443-1.7m12.014-.652c-2.239 2.24-2.077 9.662.258 11.774 1.006.91 2.356 1.655 3 1.655 2.328 0 5.171-4.001 5.171-7.277 0-6.292-4.791-9.789-8.429-6.152M165.22 131c.058 7.098.096 7.219.698 2.259.678-5.59 2.955-8.906 5.455-7.946 1.085.416 1.64 2.415 1.911 6.887l.382 6.3-.083-7c-.077-6.519-.241-7.022-2.388-7.327-1.268-.179-2.912.177-3.653.792-1.007.836-1.478.792-1.866-.173-.285-.711-.49 2.083-.456 6.208m-10.649-4.429c-1.855 1.856-2.083 7.517-.371 9.229 1.802 1.802 4.598 1.446 5.765-.734 1.58-2.952 1.238-6.572-.794-8.411-2.256-2.042-2.634-2.049-4.6-.084" fill="#1976D2" fill-rule="evenodd"/></svg>